<svg xmlns="http://www.w3.org/2000/svg" xmlns:xlink="http://www.w3.org/1999/xlink" width="776" height="583" viewBox="0 0 776 583"><defs><style>.a,.aa,.ao,.h,.j,.t,.u,.v,.w,.x{fill:#fff;}.a{stroke:#707070;}.b{clip-path:url(#a);}.c{fill:#ebebeb;}.d{fill:#f5f5f5;}.e{fill:#f0f0f0;}.f{fill:#e6e6e6;}.g{fill:#e0e0e0;}.af,.ah,.i{fill:#ff9640;}.ap,.j{opacity:0.3;}.af,.ag,.ah,.an,.ao,.ap,.j,.k,.m,.q,.s,.t,.u,.v,.w,.x,.y{isolation:isolate;}.ah,.an,.k,.w{opacity:0.6;}.l,.y{fill:#f2503f;}.m,.u{opacity:0.4;}.n{fill:#263238;}.o{fill:#407bff;}.p{fill:#e4897b;}.q,.v{opacity:0.2;}.r{fill:#de5753;}.aa,.ao,.s{opacity:0.1;}.t{opacity:0.5;}.x{opacity:0.7;}.ad,.ai,.aj,.aq,.z{fill:none;}.ad,.ai,.aq,.z{stroke:#263238;}.ad,.aq,.z{stroke-linecap:round;stroke-linejoin:round;}.z{stroke-width:0.5px;}.ab{fill:#eec1bb;}.ac{fill:#d4827d;}.ad{stroke-width:0.686px;}.ae{fill:#ffac40;}.ag{fill:#ffd5b2;}.ai,.aj{stroke-miterlimit:10;}.aj{stroke:#fff;}.ak{fill:#923026;}.al,.an{fill:#f9a366;}.am{fill:#f57365;}.aq{stroke-width:0.725px;}</style><clipPath id="a"><rect class="a" width="776" height="583" transform="translate(145 454)"/></clipPath></defs><g class="b" transform="translate(-145 -454)"><g transform="translate(145 394.047)"><g transform="translate(0 54.953)"><rect class="c" width="775.767" height="0.388" transform="translate(0 508.043)"/><rect class="c" width="51.39" height="0.388" transform="translate(646.647 533.016)"/><rect class="c" width="13.488" height="0.388" transform="translate(500.411 537.227)"/><rect class="c" width="29.778" height="0.388" transform="translate(615.316 518.609)"/><rect class="c" width="67.016" height="0.388" transform="translate(81.392 521.215)"/><rect class="c" width="9.826" height="0.388" transform="translate(162.222 521.215)"/><rect class="c" width="145.341" height="0.388" transform="translate(203.982 527.766)"/><path class="c" d="M346.663,493.8H47.063a8.867,8.867,0,0,1-8.856-8.856V63.808a8.866,8.866,0,0,1,8.856-8.855h299.6a8.865,8.865,0,0,1,8.855,8.855V484.944A8.867,8.867,0,0,1,346.663,493.8ZM47.063,55.341a8.477,8.477,0,0,0-8.468,8.467V484.944a8.477,8.477,0,0,0,8.468,8.468h299.6a8.477,8.477,0,0,0,8.467-8.468V63.808a8.476,8.476,0,0,0-8.467-8.467Z" transform="translate(21.072 -54.953)"/><path class="c" d="M562.958,493.8H263.36a8.866,8.866,0,0,1-8.855-8.856V63.808a8.864,8.864,0,0,1,8.855-8.855h299.6a8.866,8.866,0,0,1,8.858,8.855V484.944A8.867,8.867,0,0,1,562.958,493.8ZM263.36,55.341a8.476,8.476,0,0,0-8.467,8.467V484.944a8.477,8.477,0,0,0,8.467,8.468h299.6a8.478,8.478,0,0,0,8.47-8.468V63.808a8.478,8.478,0,0,0-8.47-8.467Z" transform="translate(140.368 -54.953)"/><g transform="translate(105.457 54.899)"><g transform="translate(265.526 293.138)"><path class="d" d="M321.129,430.24h-32.75L305.6,290.018a12.5,12.5,0,0,1,12.066-10.747h142.9L439.613,430.24Z" transform="translate(-211.932 -279.271)"/><path class="e" d="M376.432,430.24h32.75L426.4,290.018a9.308,9.308,0,0,0-9.429-10.747H405.716a12.506,12.506,0,0,0-12.066,10.747Z" transform="translate(-163.368 -279.271)"/><g transform="translate(191.462 47.181)"><path class="f" d="M372.045,413.3l5.935-67.822a6.465,6.465,0,0,1,5.621-5.849l2.441-.312a8.672,8.672,0,0,0,7.542-7.846l1.081-12.366a8.671,8.671,0,0,0-8.639-9.427h54.732a8.671,8.671,0,0,1,8.639,9.427l-1.081,12.366a8.673,8.673,0,0,1-7.542,7.846l-2.441.312a6.465,6.465,0,0,0-5.621,5.849L426.778,413.3a9.574,9.574,0,0,1-9.537,8.738H362.509A9.571,9.571,0,0,0,372.045,413.3Z" transform="translate(-362.509 -309.68)"/></g><path class="f" d="M278.88,328.5a20.618,20.618,0,0,0-20.541-18.822h47.649A20.618,20.618,0,0,1,326.529,328.5l4.7,53.762H283.584Z" transform="translate(-228.5 -262.499)"/><path class="e" d="M247.781,309.68h21.164A20.618,20.618,0,0,1,289.487,328.5l4.7,53.762H407.675l4.7-53.762A20.618,20.618,0,0,1,432.92,309.68h21.166a8.671,8.671,0,0,1,8.639,9.427l-1.081,12.366a8.672,8.672,0,0,1-7.542,7.846l-2.441.312a6.465,6.465,0,0,0-5.621,5.849L440.1,413.3a9.571,9.571,0,0,1-9.536,8.738H271.3a9.572,9.572,0,0,1-9.536-8.738l-5.935-67.822a6.464,6.464,0,0,0-5.621-5.849l-2.441-.31a8.673,8.673,0,0,1-7.54-7.848l-1.083-12.366A8.672,8.672,0,0,1,247.781,309.68Z" transform="translate(-239.107 -262.499)"/></g><g transform="translate(0)"><path class="f" d="M98.423,153.966s-1.818-11.987,6.924-19.673,7.975-12.259,5.477-12.854-4.8,7.089-8.647,9.2c0,0-.121-10.954,3.783-14.988s5.952-14.431,2.237-14.614-4.1,6.175-4.867,10.682-4.908,10.848-4.908,10.848-.808-9.8-3.331-13.835,4.2-13.259,1.609-17.295-7.205,3.652-6.821,12.3,6.149,17.871,4.8,26.9c0,0-2.543-6.341-4.827-6.918s-4.589-4.771-6.127-6.324-3.458,3.826,0,8.822,12.3,18.362,10.954,29.166Z" transform="translate(-60.346 -90.336)"/><path class="f" d="M102.4,127.832l2.863,17.967a9.135,9.135,0,0,1-9.022,10.572H93.19A9.135,9.135,0,0,1,84.168,145.8l2.864-17.967Z" transform="translate(-59.099 -69.656)"/><rect class="g" width="202.379" height="10.398" transform="translate(202.379 90.483) rotate(180)"/><rect class="c" width="8.916" height="38.329" transform="translate(193.064 80.085) rotate(180)"/><rect class="c" width="8.916" height="38.329" transform="translate(149.953 80.085) rotate(180)"/><rect class="c" width="8.916" height="38.329" transform="translate(94.37 80.085) rotate(-170.221)"/><rect class="c" width="8.916" height="33.278" transform="translate(182.017 80.085) rotate(180)"/><rect class="c" width="8.916" height="33.278" transform="translate(161.523 80.085) rotate(180)"/><rect class="c" width="8.916" height="33.278" transform="translate(109.796 80.085) rotate(180)"/><rect class="c" width="8.916" height="33.278" transform="translate(130.811 80.085) rotate(-167.473)"/><rect class="c" width="4.458" height="40.232" transform="translate(169.849 80.085) rotate(180)"/><rect class="c" width="4.458" height="40.232" transform="translate(116.817 80.085) rotate(180)"/></g><g transform="translate(0 117.478)"><rect class="g" width="202.379" height="10.398" transform="translate(0 40.232)"/><rect class="c" width="8.916" height="38.329" transform="translate(9.315 1.903)"/><rect class="c" width="8.916" height="38.329" transform="translate(52.427 1.903)"/><rect class="c" width="8.916" height="38.329" transform="matrix(0.985, -0.17, 0.17, 0.985, 101.499, 2.46)"/><rect class="c" width="8.916" height="33.278" transform="translate(20.363 6.954)"/><rect class="c" width="8.916" height="33.278" transform="translate(40.856 6.954)"/><rect class="c" width="8.916" height="33.278" transform="translate(92.583 6.954)"/><rect class="c" width="8.916" height="33.278" transform="translate(64.35 7.746) rotate(-12.527)"/><rect class="c" width="4.458" height="40.232" transform="translate(32.53)"/><rect class="c" width="4.458" height="40.232" transform="translate(85.562)"/><rect class="c" width="43.443" height="29.993" transform="translate(139.517 9.896)"/></g><g transform="translate(356.202 52.558)"><rect class="g" width="174.064" height="192.511" transform="translate(0.913)"/><rect class="e" width="180.535" height="192.511"/><rect class="h" width="165.55" height="177.525" transform="translate(7.349 6.14)"/><rect class="g" width="4.787" height="177.525" transform="translate(168.111 6.14)"/><rect class="g" width="4.788" height="161.698" transform="translate(6.924 138.587) rotate(-90)"/><rect class="e" width="168.117" height="8.037" transform="translate(4.781 125.763)"/></g></g></g><g transform="translate(87.058 597.93)"><ellipse class="d" cx="300.826" cy="17.569" rx="300.826" ry="17.569"/></g><g transform="translate(459.449 555.99)"><g transform="translate(7.178 21.114)"><path class="i" d="M341.733,404.306a3.283,3.283,0,0,0-2.63-4.711,7.026,7.026,0,0,0-2.226-7.674,1.636,1.636,0,0,0-.967-.43,1.856,1.856,0,0,0-1.038.458l-6.146,4.414a3.689,3.689,0,0,0-1.22,1.207c-1.257,2.433,3.272,5.551,1.41,7.561-.535.577-1.4.7-2.063,1.112-1.462.915-1.638,2.923-2.321,4.507s-3.057,2.814-3.967,1.348c.672-1.521-1.361-2.83-3.01-3.022-1.629-.191-3.375-.284-4.287-1.832-2.341,2.046-7.584-3.663-7.463-5.966-1.925.147-3.237,1.95-3.659,3.752a27.117,27.117,0,0,0-.2,5.738c-.057,3.728-1.261,7.379-1.195,11.106.051,2.9,1.171,6.122,3.828,7.289a10,10,0,0,0,4.118.552l30.239-.192a4.608,4.608,0,0,0,2.127-.354c1.364-.712,1.652-2.5,1.778-4.039l1.624-19.708Z" transform="translate(-300.752 -391.492)"/><path class="j" d="M341.733,404.306a3.283,3.283,0,0,0-2.63-4.711,7.026,7.026,0,0,0-2.226-7.674,1.636,1.636,0,0,0-.967-.43,1.856,1.856,0,0,0-1.038.458l-6.146,4.414a3.689,3.689,0,0,0-1.22,1.207c-1.257,2.433,3.272,5.551,1.41,7.561-.535.577-1.4.7-2.063,1.112-1.462.915-1.638,2.923-2.321,4.507s-3.057,2.814-3.967,1.348c.672-1.521-1.361-2.83-3.01-3.022-1.629-.191-3.375-.284-4.287-1.832-2.341,2.046-7.584-3.663-7.463-5.966-1.925.147-3.237,1.95-3.659,3.752a27.117,27.117,0,0,0-.2,5.738c-.057,3.728-1.261,7.379-1.195,11.106.051,2.9,1.171,6.122,3.828,7.289a10,10,0,0,0,4.118.552l30.239-.192a4.608,4.608,0,0,0,2.127-.354c1.364-.712,1.652-2.5,1.778-4.039l1.624-19.708Z" transform="translate(-300.752 -391.492)"/></g><g transform="translate(3.004 1.965)"><path class="i" d="M344.982,379.15h-46.92l.386,4.742.275,3.384.717,8.81.408,5.06.54,6.735.231,2.889.078.86.276,3.4.374,4.651.233,2.889.242,2.932.275,3.395.211,2.569.231,2.889.1,1.257H345.7l.1-1.257.231-2.878.209-2.591.275-3.395.244-2.922.231-2.889.374-4.662.276-3.385.067-.86.231-2.889.551-6.735.408-5.049.706-8.82.276-3.384.385-4.742Zm2.822,3.109h0l-.9-.9h.982Zm-.233,2.878-.087,1.147-4.2,4.2-4.818-4.818,4.31-4.31h1.013Zm-1.212,15.014-3.075,3.077-4.818-4.818,4.818-4.807,3.328,3.33Zm-44.648-3.218h0l3.33-3.33,4.818,4.807-4.818,4.818-3.066-3.077Zm40.019-4.9-4.818,4.818-4.817-4.818,4.817-4.818Zm-7.575-10.682h5.513l-2.756,2.755Zm1.192,17.054-4.807,4.818-4.817-4.818,4.817-4.807Zm-16,6.372,4.818-4.807,4.807,4.807-4.807,4.818Zm3.252,6.372-4.819,4.818-4.805-4.807,4.818-4.818Zm7.938-4.807,4.807,4.818-4.807,4.807-4.817-4.818Zm-6.372-9.492-4.818-4.818,4.818-4.818,4.807,4.818Zm-1.566,1.555-4.807,4.818-4.818-4.818L317.8,393.6Zm-11.19-1.555-4.807-4.818,4.807-4.818,4.818,4.818Zm0,3.12,4.818,4.807-4.818,4.818-4.807-4.818Zm4.818,17.562-4.818,4.807-4.807-4.807,4.807-4.818Zm1.553,1.555,4.819,4.817-4.807,4.818-4.818-4.818Zm1.567-1.555,4.818-4.818,4.807,4.818-4.807,4.807Zm11.19,1.555,4.807,4.817-4.807,4.818-4.817-4.818Zm6.372,6.372,4.818,4.818-3.12,3.12h-3.4l-3.119-3.12Zm-4.817-7.927,4.817-4.818,4.818,4.818-4.818,4.807Zm0-12.755,4.817-4.807,4.818,4.807-4.818,4.818Zm3.252-19.116-4.807,4.818-4.817-4.818,4.31-4.31h1.015Zm-11.179-1.555-2.757-2.755h5.5Zm-1.566,1.555-4.807,4.818-4.818-4.818,4.31-4.31H318.3Zm-8.434-4.31-2.756,2.755-2.746-2.755Zm-8.62,0,4.31,4.31-4.818,4.818-4.189-4.2-.088-1.147,3.77-3.781Zm-4.124,0-.894.892h0l-.076-.892Zm-.3,8.322,2.36,2.36-2.006,2.006Zm1.313,16.151-.188-2.282h0l1.235,1.235-1.047,1.047Zm.231,2.9,2.371-2.382,4.818,4.818-4.818,4.807-1.941-1.941Zm.717,8.907-.011-.209.11.11-.1.1Zm.838,10.263-.607-7.387,1.423-1.421,4.818,4.817-4.818,4.807-.816-.816Zm.441,5.5-.088-1.1.464-.462,1.565,1.565Zm1.941-3.12,4.807-4.818,4.818,4.818-3.12,3.12h-3.4Zm9.624,3.12,1.565-1.565,1.566,1.565Zm6.239,0-3.119-3.12,4.818-4.818,4.807,4.818-3.109,3.12Zm6.506,0,1.565-1.565,1.565,1.565Zm14.684,0h-1.939l1.565-1.565.462.462Zm.451-5.5-.825.816-4.818-4.807,4.818-4.817,1.421,1.421Zm.85-10.484-.023.22-.1-.1.123-.121Zm.275-3.385-1.95,1.941-4.818-4.807,4.818-4.818,2.38,2.382Zm.661-8.191-1.058-1.058,1.246-1.235Zm1.313-16.173-.352,4.388-2.019-2.017,2.371-2.371Z" transform="translate(-298.062 -379.15)"/><g class="k"><path class="h" d="M344.982,379.15h-46.92l.386,4.742.275,3.384.717,8.81.408,5.06.54,6.735.231,2.889.078.86.276,3.4.374,4.651.233,2.889.242,2.932.275,3.395.211,2.569.231,2.889.1,1.257H345.7l.1-1.257.231-2.878.209-2.591.275-3.395.244-2.922.231-2.889.374-4.662.276-3.385.067-.86.231-2.889.551-6.735.408-5.049.706-8.82.276-3.384.385-4.742Zm2.822,3.109h0l-.9-.9h.982Zm-.233,2.878-.087,1.147-4.2,4.2-4.818-4.818,4.31-4.31h1.013Zm-1.212,15.014-3.075,3.077-4.818-4.818,4.818-4.807,3.328,3.33Zm-44.648-3.218h0l3.33-3.33,4.818,4.807-4.818,4.818-3.066-3.077Zm40.019-4.9-4.818,4.818-4.817-4.818,4.817-4.818Zm-7.575-10.682h5.513l-2.756,2.755Zm1.192,17.054-4.807,4.818-4.817-4.818,4.817-4.807Zm-16,6.372,4.818-4.807,4.807,4.807-4.807,4.818Zm3.252,6.372-4.819,4.818-4.805-4.807,4.818-4.818Zm7.938-4.807,4.807,4.818-4.807,4.807-4.817-4.818Zm-6.372-9.492-4.818-4.818,4.818-4.818,4.807,4.818Zm-1.566,1.555-4.807,4.818-4.818-4.818L317.8,393.6Zm-11.19-1.555-4.807-4.818,4.807-4.818,4.818,4.818Zm0,3.12,4.818,4.807-4.818,4.818-4.807-4.818Zm4.818,17.562-4.818,4.807-4.807-4.807,4.807-4.818Zm1.553,1.555,4.819,4.817-4.807,4.818-4.818-4.818Zm1.567-1.555,4.818-4.818,4.807,4.818-4.807,4.807Zm11.19,1.555,4.807,4.817-4.807,4.818-4.817-4.818Zm6.372,6.372,4.818,4.818-3.12,3.12h-3.4l-3.119-3.12Zm-4.817-7.927,4.817-4.818,4.818,4.818-4.818,4.807Zm0-12.755,4.817-4.807,4.818,4.807-4.818,4.818Zm3.252-19.116-4.807,4.818-4.817-4.818,4.31-4.31h1.015Zm-11.179-1.555-2.757-2.755h5.5Zm-1.566,1.555-4.807,4.818-4.818-4.818,4.31-4.31H318.3Zm-8.434-4.31-2.756,2.755-2.746-2.755Zm-8.62,0,4.31,4.31-4.818,4.818-4.189-4.2-.088-1.147,3.77-3.781Zm-4.124,0-.894.892h0l-.076-.892Zm-.3,8.322,2.36,2.36-2.006,2.006Zm1.313,16.151-.188-2.282h0l1.235,1.235-1.047,1.047Zm.231,2.9,2.371-2.382,4.818,4.818-4.818,4.807-1.941-1.941Zm.717,8.907-.011-.209.11.11-.1.1Zm.838,10.263-.607-7.387,1.423-1.421,4.818,4.817-4.818,4.807-.816-.816Zm.441,5.5-.088-1.1.464-.462,1.565,1.565Zm1.941-3.12,4.807-4.818,4.818,4.818-3.12,3.12h-3.4Zm9.624,3.12,1.565-1.565,1.566,1.565Zm6.239,0-3.119-3.12,4.818-4.818,4.807,4.818-3.109,3.12Zm6.506,0,1.565-1.565,1.565,1.565Zm14.684,0h-1.939l1.565-1.565.462.462Zm.451-5.5-.825.816-4.818-4.807,4.818-4.817,1.421,1.421Zm.85-10.484-.023.22-.1-.1.123-.121Zm.275-3.385-1.95,1.941-4.818-4.807,4.818-4.818,2.38,2.382Zm.661-8.191-1.058-1.058,1.246-1.235Zm1.313-16.173-.352,4.388-2.019-2.017,2.371-2.371Z" transform="translate(-298.062 -379.15)"/></g></g><rect class="i" width="58.212" height="6.137" rx="1.643" transform="translate(58.212 6.137) rotate(180)"/><rect class="i" width="49.817" height="6.137" rx="1.643" transform="translate(4.197 55.122)"/></g><g transform="translate(274.978 114.779)"><rect class="l" width="397.689" height="290.468" rx="4.125"/><rect class="m" width="397.689" height="262.182" transform="translate(0 15.703)"/><g transform="translate(359.403 3.897)"><circle class="h" cx="3.742" cy="3.742" r="3.742" transform="translate(25.241)"/><circle class="h" cx="3.742" cy="3.742" r="3.742" transform="translate(12.621)"/><circle class="h" cx="3.742" cy="3.742" r="3.742"/></g><g transform="translate(1.469 36.221)"><rect class="n" width="129.23" height="113.238" transform="translate(0 115.737)"/><rect class="n" width="129.23" height="113.238"/><rect class="i" width="129.231" height="113.238" transform="translate(132.198)"/><rect class="h" width="129.231" height="113.238" transform="translate(264.396)"/><rect class="n" width="129.231" height="113.238" transform="translate(132.198 115.737)"/><rect class="o" width="129.231" height="113.238" transform="translate(264.396 115.737)"/><g transform="translate(281.87 4.276)"><path class="n" d="M445.3,204.868l2.931-24.71a12.984,12.984,0,0,0-10.012-14.224c-33.547-7.458-53.557-.076-53.557-.076a155.926,155.926,0,0,0-17.238,39.01Z" transform="translate(-355.672 -95.906)"/><g transform="translate(45.373 38.795)"><path class="p" d="M409.168,174.781c2.459-.548,8.654-.175,8.654-.175-7.288-6.1-3.674-21.576-.72-29.988l-22.542,12.746a23.953,23.953,0,0,1,.563,3.264,11.538,11.538,0,0,1-.681,5.846,19.13,19.13,0,0,1-5.35,6.042l9.019,4.026Z" transform="translate(-389.093 -144.618)"/><path class="q" d="M409.992,149.84c-.894,10.327-12.01,13.176-17.45,13.754a11.554,11.554,0,0,0,.68-5.846Z" transform="translate(-387.191 -141.738)"/></g><g transform="translate(36.597)"><path class="n" d="M384.739,132.859s-1.78,14.687,6.752,20.87,6.7-29.774,6.7-29.774Z" transform="translate(-382.803 -117.219)"/><path class="p" d="M417.142,163.679a17.711,17.711,0,0,1-1.544,2.613,14.553,14.553,0,0,1-15.536,5.994c-.416-.1-.816-.208-1.216-.341a16.115,16.115,0,0,1-9.052-7.182c-.073-.118-.147-.251-.222-.371a16.831,16.831,0,0,1-.773-1.542,34.273,34.273,0,0,1-1.26-3.488c-3.088-9.986-2.731-26.663,6.527-32.391,7.374-4.644,19.023-3.086,23.667,4.3,1.336,2.091-.163,7.567.074,10.045C418.922,151.334,420.05,157.715,417.142,163.679Z" transform="translate(-382.133 -117.006)"/><path class="n" d="M396.431,139.774c.222.908-.2,1.758-.813,1.863s-1.224-.573-1.387-1.5.211-1.761.813-1.862S396.265,138.837,396.431,139.774Z" transform="translate(-377.504 -109.324)"/><path class="n" d="M389.674,140.928c.222.908-.211,1.761-.813,1.862s-1.224-.573-1.387-1.494.213-1.763.813-1.863S389.522,140.048,389.674,140.928Z" transform="translate(-381.23 -108.688)"/><path class="r" d="M392.168,140.32a33.446,33.446,0,0,1-3.075,8.69,5.448,5.448,0,0,0,4.6.071Z" transform="translate(-380.316 -108.194)"/><path class="n" d="M399.15,137.583a.575.575,0,0,1-.565-.123,4.451,4.451,0,0,0-3.8-1.227.55.55,0,0,1-.262-1.067h0a5.474,5.474,0,0,1,4.805,1.486.55.55,0,0,1,.048.776l-.009.009A.88.88,0,0,1,399.15,137.583Z" transform="translate(-377.55 -111.084)"/><path class="n" d="M385.833,140.11a.541.541,0,0,1-.317.078.549.549,0,0,1-.385-.675l0-.012a5.476,5.476,0,0,1,3.4-3.728.548.548,0,0,1,.684.366h0a.565.565,0,0,1-.368.686h0a4.453,4.453,0,0,0-2.645,3A.559.559,0,0,1,385.833,140.11Z" transform="translate(-382.512 -110.715)"/><path class="n" d="M423.478,136.861c.062-.3.118-.624.168-.964,1.615-11.007-14.57-17.472-29.133-16.1-6.343.6-4.872,11.446-4.872,11.446s-3.6,0-5.233,2.2c-2.872,3.866,1.541,12.361,1.541,12.361-2.216-12.361,4.216-13.093,4.216-13.093s1.491,4.805,4.427,4.366,10.118-7.46,13.688-6.613a6.528,6.528,0,0,1,4.878,4.392c.155,1.6-.3,3.632-2.36,5.939-3.055,3.424,2.1,10.752,5.688,12.983,0,0-.123-1.854,1.485-1.607s2.349,9.893-.124,14.837c0,0,4.081-4.7,5.44-15.084A54.75,54.75,0,0,0,423.478,136.861Z" transform="translate(-383.436 -119.614)"/><path class="n" d="M393.668,150.383h0a8.475,8.475,0,0,0,6.87-3.739.3.3,0,0,0-.1-.4.281.281,0,0,0-.389.085l-.012.019a8.121,8.121,0,0,1-6.394,3.443.28.28,0,0,0-.284.279v.033a.28.28,0,0,0,.281.282Z" transform="translate(-377.966 -104.951)"/><path class="p" d="M414.568,143.107a10.986,10.986,0,0,1-5.275,6.54c-3.4,1.825-5.935-1.015-5.7-4.662.234-3.24,2.25-8.192,6.012-8.478S415.536,139.667,414.568,143.107Z" transform="translate(-372.329 -110.306)"/><path class="s" d="M398.642,158.117c-.416-.1-.816-.208-1.216-.341a16.115,16.115,0,0,1-9.052-7.182c2.686-.3,8.324-.86,9.468-.371C399.013,150.728,398.8,155.818,398.642,158.117Z" transform="translate(-380.713 -102.837)"/></g><path class="l" d="M384.017,203.437h7.556l8.231-30.319,7.469-7.924h-13.08l3.05,7.631Z" transform="translate(-346.519 -94.475)"/><g transform="translate(0 64.246)"><path class="o" d="M369.529,199.469l-.486,5.665h12.288c10.5-24.942,20.254-43.016,20.254-43.016l-12.749,4.006c-29.417,8.625-31.971,27.97-26.935,32.857S369.529,199.469,369.529,199.469Z" transform="translate(-359.849 -160.418)"/><path class="t" d="M369.529,199.469l-.486,5.665h12.288c10.5-24.942,20.254-43.016,20.254-43.016l-12.749,4.006c-29.417,8.625-31.971,27.97-26.935,32.857S369.529,199.469,369.529,199.469Z" transform="translate(-359.849 -160.418)"/><path class="o" d="M371.96,205.737h2.863c9.68-20.59,25.478-44.7,25.478-44.7a49.862,49.862,0,0,0-19.031,3.657l3.274,9.125-7.9,1.6Z" transform="translate(-353.169 -161.022)"/><path class="u" d="M371.96,205.737h2.863c9.68-20.59,25.478-44.7,25.478-44.7a49.862,49.862,0,0,0-19.031,3.657l3.274,9.125-7.9,1.6Z" transform="translate(-353.169 -161.022)"/><path class="q" d="M372.115,193.8a27.461,27.461,0,0,0,2.546-11.143l-8.4,5.478-.486,5.665Z" transform="translate(-356.58 -149.088)"/></g><g transform="translate(42.985 61.767)"><path class="n" d="M387.553,164.871l6.029-5.447,5.379,7.337,17.074-7.337,4.279,6.912-16.537,8.2-5.5-5.283-6.036,3.815Z" transform="translate(-387.553 -159.424)"/><path class="v" d="M387.553,164.871l6.029-5.447,5.379,7.337,17.074-7.337,4.279,6.912-16.537,8.2-5.5-5.283-6.036,3.815Z" transform="translate(-387.553 -159.424)"/></g><path class="p" d="M377.776,188.019l18.207-19.5a9.907,9.907,0,0,0,6.378-2.472c2.707-2.549,6.369-13.816,5.478-14.539s-11.756-1.631-12.788-.36-5.527,12.656-5.527,12.656l-19.518,15.273Z" transform="translate(-354.246 -102.573)"/><g transform="translate(0.027 65.226)"><g transform="translate(25.502)"><path class="n" d="M376.3,164.831l3.6-3.178,8.619,6.684-3.913,5.188Z" transform="translate(-376.303 -161.654)"/><path class="v" d="M376.3,164.831l3.6-3.178,8.619,6.684-3.913,5.188Z" transform="translate(-376.303 -161.654)"/></g><g transform="translate(0 1.141)"><path class="o" d="M386.348,162.389l10.332,8.178s-24.022,38.039-32.761,30.01S359.661,179.957,386.348,162.389Z" transform="translate(-359.866 -162.389)"/><path class="w" d="M386.348,162.389l10.332,8.178s-24.022,38.039-32.761,30.01S359.661,179.957,386.348,162.389Z" transform="translate(-359.866 -162.389)"/></g></g><g transform="translate(71.2 62.839)"><path class="o" d="M426.8,205.732l1.517-27.278a12.525,12.525,0,0,0-8.1-12.316l-13.576-5.106s.585,20.482,2.161,44.7Z" transform="translate(-405.244 -159.609)"/><path class="t" d="M426.8,205.732l1.517-27.278a12.525,12.525,0,0,0-8.1-12.316l-13.576-5.106s.585,20.482,2.161,44.7Z" transform="translate(-405.244 -159.609)"/><path class="o" d="M414.856,206.237l5.019-14.077-7.461-6.848,8.609-2.589c-5.48-16.871-14.355-22.607-14.355-22.607-2.2,10.789-.039,32.284,1.759,46.122Z" transform="translate(-405.739 -160.115)"/><path class="u" d="M414.856,206.237l5.019-14.077-7.461-6.848,8.609-2.589c-5.48-16.871-14.355-22.607-14.355-22.607-2.2,10.789-.039,32.284,1.759,46.122Z" transform="translate(-405.739 -160.115)"/></g><path class="p" d="M368.759,192.317c1.525.6,13.737,1.4,13.737,1.4l2.832,1.924H405.16l-20.142-9.511a9.9,9.9,0,0,0-4.3-5.322c-3.254-1.8-15.1-1.853-15.518-.785S367.233,191.721,368.759,192.317Z" transform="translate(-356.922 -86.683)"/><g transform="translate(33.616 72.762)"><path class="n" d="M389.9,192.186l1.832-3.294-7.533-3.3-2.679,6.594Z" transform="translate(-381.515 -155.987)"/><path class="v" d="M389.9,192.186l1.832-3.294-7.533-3.3-2.679,6.594Z" transform="translate(-381.515 -155.987)"/><path class="o" d="M429.434,202.71c9-14.069,15.329-31.209,7.975-36.188,0,0-5.648-1.612-28.962,34.03,0,0-2.571,5.5-21.759-3.114l-2.5,5.272Z" transform="translate(-380.041 -166.511)"/><path class="w" d="M429.434,202.71c9-14.069,15.329-31.209,7.975-36.188,0,0-5.648-1.612-28.962,34.03,0,0-2.571,5.5-21.759-3.114l-2.5,5.272Z" transform="translate(-380.041 -166.511)"/></g></g><rect class="j" width="129.231" height="113.238" transform="translate(132.198 115.737)"/><g transform="translate(10.882 6.249)"><path class="o" d="M196.547,204.077c3.115-8.088,21.334-23.832,21.334-23.832V164.033c-9.322,1.732-32.106,21.348-32.688,40.044Z" transform="translate(-185.19 -97.088)"/><path class="w" d="M196.553,204.077c1.474-3.846,6.364-9.419,11.076-14.211,5.224-5.281,10.253-9.615,10.253-9.615V164.033c-9.325,1.73-32.112,21.351-32.691,40.044Z" transform="translate(-185.191 -97.088)"/><path class="q" d="M199.653,185.778c5.222-5.281,10.253-9.615,10.253-9.615v-4.718S200.928,175.9,199.653,185.778Z" transform="translate(-177.215 -93)"/><path class="o" d="M274.126,204.151c2.318-14.3,4.593-26.106,5.652-31.436a3.2,3.2,0,0,0-2.439-3.756c-3.333-.723-6.769-1.351-10.239-1.884-17.435-2.7-35.8-3.19-47.244-3.176-7,.016-11.4.208-11.4.208-3.2,11.45-5.1,25.7-6.188,40.044Z" transform="translate(-175.77 -97.162)"/><path class="x" d="M274.134,204.151c.065-.4.129-.8.194-1.2,2.24-13.754,4.422-25.062,5.444-30.239a2.677,2.677,0,0,0,.045-.846,3.151,3.151,0,0,0-2.478-2.909c-3.339-.726-6.766-1.35-10.239-1.884-17.435-2.7-35.8-3.19-47.244-3.176-7,.016-11.4.208-11.4.208-3.2,11.45-5.1,25.7-6.188,40.044Z" transform="translate(-175.77 -97.162)"/><path class="i" d="M227.661,182.328c20.21,2.141,33.682-15.045,33.682-15.045l-.267-.208c-17.435-2.7-35.8-3.19-47.244-3.176C213.832,163.9,208.687,180.319,227.661,182.328Z" transform="translate(-169.745 -97.162)"/><path class="p" d="M246.425,175.594c-5.683,5.163-19.607,3.255-19.607,3.255s-8.69-2.379-6.866-5.1c5.12-.846,7.6-3.233,8.622-6.29a14.9,14.9,0,0,0,.52-5.846,30.475,30.475,0,0,0-.431-3.264l17.213-12.746C243.62,154.019,240.859,169.5,246.425,175.594Z" transform="translate(-166.158 -107.251)"/><path class="q" d="M238.745,150.828c-.683,10.327-9.17,13.177-13.325,13.756a14.9,14.9,0,0,0,.52-5.846Z" transform="translate(-163.003 -104.371)"/><g transform="translate(50.942 61.791)"><path class="o" d="M244.811,160.711l-16.451,7.418-.965-5.947-6.048,2.127a4.973,4.973,0,0,0-3.3,5.207l.683,6.527,8.347-4.568,4.158,5.882L251,167.839Z" transform="translate(-218.025 -160.711)"/><path class="y" d="M244.811,160.711l-16.451,7.418-.965-5.947-6.048,2.127a4.973,4.973,0,0,0-3.3,5.207l.683,6.527,8.347-4.568,4.158,5.882L251,167.839Z" transform="translate(-218.025 -160.711)"/></g><g transform="translate(42.639)"><path class="n" d="M217.565,128.91s-4.672,16.106,3.216,23.582,11.933-23.123,11.933-23.123Z" transform="translate(-210.732 -116.46)"/><path class="v" d="M217.565,128.91s-4.672,16.106,3.216,23.582,11.933-23.123,11.933-23.123Z" transform="translate(-210.732 -116.46)"/><path class="p" d="M217.51,162.531a17.019,17.019,0,0,0,3.918,6.945,16.515,16.515,0,0,0,5.119,3.724,15.428,15.428,0,0,0,11.1.875,15.157,15.157,0,0,0,6.8-4.391c5.8-6.307,5.385-13.325,5.638-25.24A16.313,16.313,0,0,0,226.991,129C215.507,134.175,214.542,151.921,217.51,162.531Z" transform="translate(-210.795 -117.234)"/><path class="n" d="M227.245,141.616c.1.959-.441,1.772-1.085,1.8s-1.175-.751-1.216-1.716.455-1.773,1.085-1.8S227.2,140.636,227.245,141.616Z" transform="translate(-205.907 -110.399)"/><path class="n" d="M220.18,141.883c.1.959-.455,1.773-1.085,1.8s-1.173-.751-1.216-1.716.455-1.773,1.085-1.8S220.143,140.963,220.18,141.883Z" transform="translate(-209.803 -110.251)"/><path class="r" d="M223.152,141.5a34.518,34.518,0,0,1-4.319,8.47,5.62,5.62,0,0,0,4.693.7Z" transform="translate(-209.276 -109.518)"/><path class="n" d="M216.733,139.074a.6.6,0,0,0,.6-.033,4.586,4.586,0,0,1,4.067-.633.567.567,0,0,0,.441-1.044h0a5.643,5.643,0,0,0-5.137.731.567.567,0,0,0-.174.782l.008.011A.891.891,0,0,0,216.733,139.074Z" transform="translate(-210.599 -111.971)"/><path class="n" d="M229.583,138.919a.547.547,0,0,0,.312-.124.567.567,0,0,0-.081-.8l-.009-.008a5.654,5.654,0,0,0-5.087-1.1.566.566,0,0,0-.355.717v0a.584.584,0,0,0,.72.357h0a4.593,4.593,0,0,1,4.015.932A.578.578,0,0,0,229.583,138.919Z" transform="translate(-206.242 -112.167)"/><path class="n" d="M232.248,129.058l-.694,5.247a3.914,3.914,0,0,1,1.919,4.949c-1.739,4.4.7,11.278,4.062,14.044,0,0,.124-1.913,1.733-1.443s1.066,10.433-2.13,15.155c0,0,4.807-4.253,7.6-14.69,2.585-9.652,2.974-17.714,1.022-21.478Z" transform="translate(-202.26 -116.378)"/><path class="z" d="M228.067,148.838a8.927,8.927,0,0,0-5.1,3.632" transform="translate(-206.995 -105.469)"/><path class="s" d="M219.526,154.556a16.515,16.515,0,0,0,5.119,3.724,15.428,15.428,0,0,0,11.1.875c-.875-.92-2.568-2.046-5.773-2.953A51.4,51.4,0,0,0,219.526,154.556Z" transform="translate(-208.893 -102.315)"/><path class="v" d="M232.248,129.058l-.694,5.247a3.914,3.914,0,0,1,1.919,4.949c-1.739,4.4.7,11.278,4.062,14.044,0,0,.124-1.913,1.733-1.443s1.066,10.433-2.13,15.155c0,0,4.807-4.253,7.6-14.69,2.585-9.652,2.974-17.714,1.022-21.478Z" transform="translate(-202.26 -116.378)"/><path class="n" d="M256.992,137.759s1.291-6.886-9.554-12.28-22.738.765-29.982-3.87-7.5,14.42,7.989,16.567S256.992,137.759,256.992,137.759Z" transform="translate(-212.673 -120.886)"/><path class="j" d="M256.992,137.759s1.291-6.886-9.554-12.28-22.738.765-29.982-3.87-7.5,14.42,7.989,16.567S256.992,137.759,256.992,137.759Z" transform="translate(-212.673 -120.886)"/><path class="p" d="M245.714,147.228a11.34,11.34,0,0,1-6.278,5.975c-3.719,1.406-5.93-1.84-5.2-5.539.678-3.28,3.407-8.074,7.294-7.857S247.169,143.841,245.714,147.228Z" transform="translate(-200.858 -110.454)"/></g><path class="p" d="M236.334,177.551l-1.648-8.749s3.4-3.233,3.013-6.222-15.559-7.922-18.248-8.118-1.669,10.721-.849,12.718,9.93,4.4,9.93,4.4l1.139,9.229Z" transform="translate(-167.255 -102.368)"/><path class="q" d="M252.841,201.318c.782-.388,1.534-.791,2.237-1.2,2.24-13.754,4.422-25.062,5.444-30.239a2.677,2.677,0,0,0,.045-.846c-9.809,9.984-25.082,26.689-23.242,32.283Z" transform="translate(-156.521 -94.329)"/><path class="o" d="M254.691,202.343c11.281-10.121,21.092-24.061,14.158-33.491-6.088-8.281-21.793,21.743-26.489,23.8s-8.889-25.472-8.889-25.472l-9.308,2.774s1.707,19.827,6.489,32.391Z" transform="translate(-163.697 -95.354)"/><path class="w" d="M254.691,202.343c11.281-10.121,21.092-24.061,14.158-33.491-6.088-8.281-21.793,21.743-26.489,23.8s-8.889-25.472-8.889-25.472l-9.308,2.774s1.707,19.827,6.489,32.391Z" transform="translate(-163.697 -95.354)"/></g><g transform="translate(146.923 17.97)"><g transform="translate(0 62.13)"><path class="o" d="M298.136,201.622c3.283-3.3,5.4-5.64,5.4-5.64l-1.787-27.5c-5.185,2.749-20.719,23.49-28.876,33.138Z" transform="translate(-272.872 -168.484)"/><path class="t" d="M298.136,201.622c3.283-3.3,5.4-5.64,5.4-5.64l-1.787-27.5c-5.185,2.749-20.719,23.49-28.876,33.138Z" transform="translate(-272.872 -168.484)"/></g><path class="q" d="M290.7,196.418c3.286-3.3,5.406-5.635,5.406-5.635l-.416-6.529-2.062-6.335a26.112,26.112,0,0,0-7.3,18.5Z" transform="translate(-265.448 -101.15)"/><g transform="translate(25.541 61.185)"><path class="o" d="M343.445,201.958c.763-2.732,1.618-5.64,2.6-8.8.956-3.063,2.009-6.35,3.19-9.891.886-2.684,1.842-5.536,2.9-8.543a137.638,137.638,0,0,0-19.25-4.651,147.831,147.831,0,0,0-20.825-2.192c-9.021-.07-19.39.942-19.39.942s-1.476.351-2.4,9.921c-.453,4.835-.9,12.28-.931,23.217Z" transform="translate(-289.334 -167.875)"/><path class="t" d="M343.445,201.958c.763-2.732,1.618-5.64,2.6-8.8.956-3.063,2.009-6.35,3.19-9.891.886-2.684,1.842-5.536,2.9-8.543a137.638,137.638,0,0,0-19.25-4.651,147.831,147.831,0,0,0-20.825-2.192c-9.021-.07-19.39.942-19.39.942s-1.476.351-2.4,9.921c-.453,4.835-.9,12.28-.931,23.217Z" transform="translate(-289.334 -167.875)"/></g><path class="n" d="M309.372,198.816,322.1,176.044l-14.714,8.223-8.532-10.7,3.113,25.245Z" transform="translate(-258.543 -103.548)"/><g transform="translate(32.889 59.622)"><path class="n" d="M325.229,167.748c8.4,1.972,10.943,8.716,10.015,14.837l-6.121-2.04s-11.314,3.9-19.659,10.758c0,0-4.638-8.532-9.089-11.314l-6.305.742S303.9,162.74,325.229,167.748Z" transform="translate(-294.07 -166.867)"/><path class="aa" d="M325.229,167.748c8.4,1.972,10.943,8.716,10.015,14.837l-6.121-2.04s-11.314,3.9-19.659,10.758c0,0-4.638-8.532-9.089-11.314l-6.305.742S303.9,162.74,325.229,167.748Z" transform="translate(-294.07 -166.867)"/></g><path class="ab" d="M305.627,175.13a9.726,9.726,0,0,1,1.41-.605c1.071-.846,2.369-2.88,2.307-7.827a40.417,40.417,0,0,0-.537-5.792l13.758-2.569s-4.69,9.258-.776,16.134c1.345.6,2.149,1.444,2,2.565-1.029,7.952-18.119,15.635-18.119,15.635S297.328,179.687,305.627,175.13Z" transform="translate(-256.834 -111.951)"/><path class="q" d="M306.37,160.905a40.417,40.417,0,0,1,.537,5.792c9.294,0,13.221-8.361,13.221-8.361Z" transform="translate(-254.397 -111.951)"/><g transform="translate(38.46)"><path class="n" d="M317.313,130.776s-16.136-2.04-19.1,10.943a20,20,0,0,0,7.047,20.216Z" transform="translate(-297.661 -127.215)"/><path class="ab" d="M317.76,135.215c-11.959-.656-16.161,5.536-17.711,17.813-1.939,15.342.877,26.471,16.01,24C336.613,173.673,337.621,136.3,317.76,135.215Z" transform="translate(-296.642 -124.729)"/><path class="ac" d="M306.2,146.521a25.287,25.287,0,0,1-3.752,4.769,3.294,3.294,0,0,0,3.078,1.525Z" transform="translate(-295.022 -118.467)"/><g transform="translate(18.073 24.858)"><path class="n" d="M309.619,146.748c-.078.981.391,1.818,1.044,1.87s1.247-.7,1.323-1.683-.391-1.818-1.044-1.87S309.7,145.768,309.619,146.748Z" transform="translate(-309.143 -144.129)"/><path class="n" d="M311.377,145.465l-2.068-1S310.231,146.34,311.377,145.465Z" transform="translate(-309.309 -144.461)"/></g><g transform="translate(5.892 23.699)"><path class="n" d="M301.768,146c-.078.982.391,1.818,1.044,1.87s1.247-.7,1.323-1.683-.391-1.818-1.044-1.87S301.844,145.021,301.768,146Z" transform="translate(-301.292 -143.382)"/><path class="n" d="M303.526,144.718l-2.068-1S302.38,145.593,303.526,144.718Z" transform="translate(-301.458 -143.714)"/></g><path class="ad" d="M309.985,140.833s3.384-.253,5.088,2.093" transform="translate(-290.863 -121.609)"/><path class="ad" d="M306.114,140.286a5.588,5.588,0,0,0-4.821.721" transform="translate(-295.657 -122.043)"/><path class="n" d="M329.456,157.72s-5.053-10.133-3.79-17.672c0,0-23.169-10.98-25.656,13.011,0,0-1.147-21.487,19.439-20.837,20.552.649,18.85,30.722,7.741,39.1C327.189,171.324,332.579,164.055,329.456,157.72Z" transform="translate(-296.372 -126.361)"/><path class="n" d="M313.59,131s-9.831-2.411-12.612.186,17.064,20.958,27.45,22.814c0,0,3.524,11.5.742,16.878,0,0,11.685-4.081,12.242-21.886S323.235,124.51,313.59,131Z" transform="translate(-295.977 -128.368)"/><path class="ab" d="M317.674,151.829a5.258,5.258,0,0,1,5.911-4.485c3.683.608,5.033,8.313-4.285,9.637C317.963,157.171,317.288,155.837,317.674,151.829Z" transform="translate(-286.682 -118.053)"/><path class="n" d="M320.967,138.122s4.081-10.386,15.023-9.644,12.612,17.805,6.862,30.418S341,175.588,341,175.588s-6.121-.742-6.121-12.057a41.619,41.619,0,0,0-.372,7.235s-4.079-5.75-.185-16.693-8.532-5.936-8.532-5.936Z" transform="translate(-284.806 -128.44)"/><path class="ad" d="M301.481,130.855s5.193,16.693,19.1,21.7" transform="translate(-295.554 -127.107)"/><path class="ad" d="M312.886,153.329a9.623,9.623,0,0,1-6.862,2.782" transform="translate(-293.048 -114.712)"/><path class="z" d="M305.665,148.254a2.652,2.652,0,1,0,2.644-2.875A2.766,2.766,0,0,0,305.665,148.254Z" transform="translate(-293.246 -119.097)"/><path class="z" d="M299.628,147.955a2.652,2.652,0,1,0,2.644-2.875A2.766,2.766,0,0,0,299.628,147.955Z" transform="translate(-296.576 -119.262)"/><path class="z" d="M307.116,147.754s-1.39-2.968-4.081-.464" transform="translate(-294.696 -118.597)"/><path class="z" d="M309.072,147.368s14.839-.464,16.6-.371" transform="translate(-291.367 -118.211)"/></g><g transform="translate(78.041 68.032)"><path class="o" d="M344.911,199.524c-5.654-14.828-11.441-27.236-11.441-27.236s-9.455,13.745-10.3,27.236Z" transform="translate(-323.171 -172.288)"/><path class="t" d="M344.911,199.524c-5.654-14.828-11.441-27.236-11.441-27.236s-9.455,13.745-10.3,27.236Z" transform="translate(-323.171 -172.288)"/></g></g><g transform="translate(139.993 123.494)"><path class="p" d="M346.268,270.018c-3.165-8.5-6.181-15.7-6.181-15.7l-12.979,11.359s.908,1.728,2.265,4.341Z" transform="translate(-236.03 -164.538)"/><path class="p" d="M287.066,270.49c3.08-3.747,5.283-6.509,5.283-6.509l-12.665-10.519s-6.156,9.57-11.278,17.028Z" transform="translate(-268.406 -165.01)"/><g transform="translate(0.558 65.168)"><path class="ae" d="M289.159,278.765l7.526-5.277-2.928-35.029c-9.587,1.626-23.521,29.5-23.521,29.5l10.883,10.8Z" transform="translate(-267.955 -238.453)"/><path class="v" d="M281.119,278.767h8.039l5.4-3.784,2.127-1.489-2.923-35.038c-9.59,1.634-23.521,29.512-23.521,29.512l9.59,9.519Z" transform="translate(-267.954 -238.455)"/><path class="ae" d="M284.281,269.374l-13.234-13.886-2.282,3.822,10.606,10.064Z" transform="translate(-268.766 -229.061)"/><path class="q" d="M285.748,271.182l5.4-3.784-2.56-15.19s-10.024,6.336-12.167,17.692l1.291,1.282Z" transform="translate(-264.544 -230.87)"/></g><g transform="translate(20.075 64.968)"><path class="o" d="M353.173,278.838c3.191-19.729,6.316-34.754,6.316-34.754-30.713-7.405-71.937-5.551-71.937-5.551-3.221,11.519-5.125,25.87-6.208,40.306Z" transform="translate(-281.345 -238.326)"/><path class="af" d="M353.167,278.838c.222-1.375.444-2.745.663-4.071,2.951-17.686,5.655-30.685,5.655-30.685-30.708-7.4-71.931-5.55-71.931-5.55-3.219,11.519-5.123,25.87-6.206,40.306Z" transform="translate(-281.343 -238.326)"/><path class="q" d="M329.75,267.4c.222-1.375.444-2.745.664-4.071l-4.537-4.259a29.3,29.3,0,0,0-2.073,8.33Z" transform="translate(-257.927 -226.886)"/></g><path class="l" d="M296.615,277.112h4.88c.788-9.894,1.98-19.853,3.775-26.423l8.6-7.042-6.771-2.191-6.144.344,1.657,8.147S299.608,262.489,296.615,277.112Z" transform="translate(-252.848 -171.631)"/><path class="p" d="M325.509,250.018c-5.683,5.164-19.607,3.255-19.607,3.255s-8.69-2.38-6.864-5.1c5.118-.846,7.6-3.235,8.62-6.291a14.9,14.9,0,0,0,.52-5.846,30.991,30.991,0,0,0-.431-3.264L324.96,220.03C322.7,228.444,319.944,243.921,325.509,250.018Z" transform="translate(-251.65 -183.449)"/><path class="q" d="M317.83,225.252c-.683,10.327-9.171,13.176-13.325,13.754a14.9,14.9,0,0,0,.52-5.846Z" transform="translate(-248.496 -180.568)"/><g transform="translate(44.535 60.016)"><path class="ae" d="M323.9,235.134l-16.451,7.419-.965-5.947-6.048,2.127a4.971,4.971,0,0,0-3.3,5.207l.681,6.527,8.349-4.569,4.158,5.883,19.762-9.519Z" transform="translate(-297.11 -235.134)"/><path class="j" d="M323.9,235.134l-16.451,7.419-.965-5.947-6.048,2.127a4.971,4.971,0,0,0-3.3,5.207l.681,6.527,8.349-4.569,4.158,5.883,19.762-9.519Z" transform="translate(-297.11 -235.134)"/></g><g transform="translate(37.429)"><path class="n" d="M293.038,205.15s-2.571,16.572,6.211,22.975,8.873-24.46,8.873-24.46Z" transform="translate(-292.443 -192.474)"/><path class="p" d="M324.306,242.4a15.051,15.051,0,0,1-17.3,5.779,16.759,16.759,0,0,1-9.54-7.82,17.109,17.109,0,0,1-.791-1.593c-4.3-10.145-5.624-27.872,5.109-34.481a16.317,16.317,0,0,1,24.877,12.364C327.944,228.5,329.255,235.409,324.306,242.4Z" transform="translate(-291.993 -193.498)"/><path class="n" d="M304.555,215.975c.225.937-.209,1.814-.846,1.918s-1.26-.593-1.426-1.545.225-1.817.846-1.919S304.386,215.009,304.555,215.975Z" transform="translate(-287.171 -186.543)"/><path class="n" d="M297.582,217.144c.227.937-.223,1.817-.844,1.918s-1.261-.594-1.427-1.545.225-1.817.846-1.919S297.428,216.237,297.582,217.144Z" transform="translate(-291.017 -185.898)"/><path class="r" d="M300.165,216.523a34.571,34.571,0,0,1-3.2,8.954,5.616,5.616,0,0,0,4.743.087Z" transform="translate(-290.083 -185.383)"/><path class="n" d="M293.807,214.924a.6.6,0,0,0,.585-.109,4.593,4.593,0,0,1,3.953-1.15.566.566,0,0,0,.3-1.091h0a5.646,5.646,0,0,0-5,1.382.566.566,0,0,0-.073.8l.009.011A.888.888,0,0,0,293.807,214.924Z" transform="translate(-292.027 -187.627)"/><path class="n" d="M306.567,213.05a.547.547,0,0,0,.295-.163.568.568,0,0,0-.183-.78l-.011-.006a5.646,5.646,0,0,0-5.185-.439.566.566,0,0,0-.261.757v0a.581.581,0,0,0,.759.261h0a4.591,4.591,0,0,1,4.1.413A.576.576,0,0,0,306.567,213.05Z" transform="translate(-287.768 -188.303)"/><path class="n" d="M307.74,202.858l-.016,5.292a3.918,3.918,0,0,1,2.537,4.664c-1.162,4.588,2.136,11.1,5.826,13.408,0,0-.123-1.913,1.534-1.652s2.392,10.211-.174,15.3c0,0,4.223-4.835,5.658-15.543,1.328-9.9.683-17.948-1.735-21.431Z" transform="translate(-284.149 -192.92)"/><path class="p" d="M323.259,219.464a11.347,11.347,0,0,1-5.461,6.729c-3.508,1.871-6.118-1.066-5.868-4.827.253-3.34,2.346-8.445,6.226-8.726S324.269,215.917,323.259,219.464Z" transform="translate(-281.839 -187.533)"/><g transform="translate(12.869 39.318)"><path class="n" d="M300.824,225.564a31.272,31.272,0,0,1,2.2,3.955c.258-.07.515-.138.768-.219,3.469-1.018,4.741-2.636,5.1-4.122a4.678,4.678,0,0,0-.051-2.206,4.531,4.531,0,0,0-.455-1.178c-1.516,1.638-4.676,2.836-6.391,3.406C301.285,225.445,300.824,225.564,300.824,225.564Z" transform="translate(-300.824 -221.794)"/><path class="h" d="M301.583,225.2l.68,1.148c3.264-.967,5.434-2.085,6.166-3.376a4.531,4.531,0,0,0-.455-1.178C306.458,223.432,303.3,224.63,301.583,225.2Z" transform="translate(-300.405 -221.794)"/><path class="r" d="M302.74,228.1c3.469-1.018,4.742-2.636,5.1-4.122a11.607,11.607,0,0,0-3.628,1.894A4.355,4.355,0,0,0,302.74,228.1Z" transform="translate(-299.767 -220.591)"/></g><g transform="translate(2.35 28.347)"><path class="n" d="M322.353,215.628l-1.552-.9s.974,6.341-1.036,8.124c0,0-6.988.742-9.424,1.4s-3.9,3.46-3.9,3.46-5.466-1.171-7.846,2.937a17.874,17.874,0,0,1-4.554-6.347s.178,11.595,6.679,17.774,17.121,3.109,22.041-1.722S322.353,215.628,322.353,215.628Zm-4.6,18.3a4.292,4.292,0,0,1-7.4-.458l-2.174,1.188s2.389,2.019.576,3.871-7.433,1.2-8-4.152c-.582-5.506,6.186-5.956,6.186-5.956a8.989,8.989,0,0,1,6.468-2.652C317.624,225.736,319.9,231.037,317.755,233.926Z" transform="translate(-294.044 -214.723)"/></g><path class="n" d="M316.1,211.683s-26.371,9-23.33-8.779c0,0,14.224-8.386,26.635-6.037s11.43,15.2,11.43,15.2Z" transform="translate(-292.53 -196.452)"/></g><g transform="translate(86.721 70.724)"><path class="ae" d="M351.218,276.792c-1.589-5.06-10.262-32.044-15.422-34.756,0,0-3.694,2.994-7.216,10.164s-4.279,21.545-4.279,21.545l2.279,3.047Z" transform="translate(-324.3 -242.036)"/><path class="v" d="M351.218,276.792c-1.589-5.06-10.262-32.044-15.422-34.756,0,0-3.694,2.994-7.216,10.164s-4.279,21.545-4.279,21.545l2.279,3.047Z" transform="translate(-324.3 -242.036)"/></g></g><rect class="ag" width="129.231" height="113.238" transform="translate(264.396 115.737)"/><g transform="translate(271.956 131.55)"><g transform="translate(0 61.431)"><path class="n" d="M378.336,277.232c4.887-4.737,8.29-8.5,8.29-8.5l-1.787-27.5c-5.784,3.067-24.449,28.526-31.38,35.994Z" transform="translate(-353.459 -241.238)"/><path class="j" d="M378.336,277.232c4.887-4.737,8.29-8.5,8.29-8.5l-1.787-27.5c-5.784,3.067-24.449,28.526-31.38,35.994Z" transform="translate(-353.459 -241.238)"/></g><path class="q" d="M370.011,272.028c4.887-4.734,8.3-8.492,8.3-8.492l-.416-6.529-2.062-6.335a26.11,26.11,0,0,0-7.087,21.355Z" transform="translate(-345.143 -174.604)"/><path class="n" d="M425.125,220.711c-1.339,5.131,5.981,19.279,3.013,45.019s-31.2,24.17-43.884,15.59-10.491-55.148-6.128-64.33S425.125,220.711,425.125,220.711Z" transform="translate(-341.739 -195)"/><g transform="translate(28.044 60.486)"><path class="n" d="M424.862,277.568c.942-3.525,2.054-7.374,3.387-11.658.956-3.063,2.009-6.35,3.19-9.891.886-2.684,1.842-5.536,2.9-8.543a137.855,137.855,0,0,0-19.25-4.651,147.822,147.822,0,0,0-20.823-2.192c-9.021-.07-19.391.942-19.391.942s-1.476.351-2.4,9.921c-.492,5.244-.979,13.56-.929,26.074Z" transform="translate(-371.534 -240.629)"/><path class="j" d="M424.862,277.568c.942-3.525,2.054-7.374,3.387-11.658.956-3.063,2.009-6.35,3.19-9.891.886-2.684,1.842-5.536,2.9-8.543a137.855,137.855,0,0,0-19.25-4.651,147.822,147.822,0,0,0-20.823-2.192c-9.021-.07-19.391.942-19.391.942s-1.476.351-2.4,9.921c-.492,5.244-.979,13.56-.929,26.074Z" transform="translate(-371.534 -240.629)"/></g><path class="h" d="M399.235,239.78c5.561.334,14.468.278,20.234,9.18H408.913l5.748,7.021s-18.482,4.4-24.264,16.522c0,0-8.276-14.364-12.778-17.7a38.429,38.429,0,0,1,9.371-6.842,42.024,42.024,0,0,0-9.371-2.771S391.71,239.33,399.235,239.78Z" transform="translate(-340.134 -180.625)"/><g transform="translate(49.36 62.48)"><path class="o" d="M405.375,243.819s-14.31,16.136-18.718,23.926c0,0-3.483-12.713.6-25.831Z" transform="translate(-385.272 -241.914)"/><path class="ah" d="M405.375,243.819s-14.31,16.136-18.718,23.926c0,0-3.483-12.713.6-25.831Z" transform="translate(-385.272 -241.914)"/></g><path class="ab" d="M390.017,256.135c11.43-1.462,14.865-6.346,14.865-6.346-7.252-6.842-1.227-18.7-1.227-18.7L389.9,233.659a40.425,40.425,0,0,1,.537,5.792c.105,8.35-3.671,8.433-3.671,8.433C384.35,252.407,390.017,256.135,390.017,256.135Z" transform="translate(-335.421 -185.404)"/><path class="q" d="M388.571,233.659a40.425,40.425,0,0,1,.537,5.792c9.294,0,13.221-8.361,13.221-8.361Z" transform="translate(-334.094 -185.404)"/><g transform="translate(43.831 5.147)"><path class="ab" d="M399.961,207.969C388,207.313,383.8,213.5,382.25,225.782c-1.939,15.342.877,26.471,16.01,24C418.814,246.427,419.822,209.056,399.961,207.969Z" transform="translate(-381.709 -203.329)"/><path class="ac" d="M388.4,219.275a25.288,25.288,0,0,1-3.752,4.769,3.3,3.3,0,0,0,3.08,1.525Z" transform="translate(-380.09 -197.067)"/><g transform="translate(15.206 19.011)"><path class="n" d="M391.82,219.5c-.078.981.391,1.818,1.044,1.87s1.247-.7,1.323-1.683-.391-1.818-1.044-1.87S391.9,218.522,391.82,219.5Z" transform="translate(-391.344 -216.883)"/><path class="n" d="M393.578,218.219l-2.068-1S392.432,219.094,393.578,218.219Z" transform="translate(-391.51 -217.215)"/></g><g transform="translate(3.025 17.852)"><path class="n" d="M383.969,218.755c-.078.982.391,1.818,1.044,1.87s1.247-.7,1.323-1.683-.391-1.818-1.044-1.87S384.045,217.775,383.969,218.755Z" transform="translate(-383.493 -216.136)"/><path class="n" d="M385.727,217.472l-2.068-1S384.581,218.347,385.727,217.472Z" transform="translate(-383.659 -216.468)"/></g><path class="ad" d="M392.186,213.587s3.384-.251,5.087,2.093" transform="translate(-375.931 -200.209)"/><path class="ad" d="M388.315,213.04a5.589,5.589,0,0,0-4.821.721" transform="translate(-380.725 -200.643)"/><g transform="translate(9.121 31.492)"><path class="n" d="M387.588,227.07a30.273,30.273,0,0,1,1.168,4.231c.258-.006.517-.011.774-.031,3.5-.16,5.07-1.392,5.75-2.707a4.508,4.508,0,0,0,.459-2.088,4.372,4.372,0,0,0-.157-1.215c-1.8,1.195-5.056,1.6-6.8,1.738C388.05,227.063,387.588,227.07,387.588,227.07Z" transform="translate(-387.588 -225.259)"/><path class="h" d="M388.357,227l.377,1.238c3.3-.16,5.595-.715,6.582-1.761a4.372,4.372,0,0,0-.157-1.215C393.354,226.454,390.1,226.856,388.357,227Z" transform="translate(-387.164 -225.259)"/><path class="r" d="M388.84,230.1c3.5-.16,5.07-1.392,5.75-2.707a11.275,11.275,0,0,0-3.851.95A4.215,4.215,0,0,0,388.84,230.1Z" transform="translate(-386.897 -224.085)"/></g><path class="n" d="M411.657,230.474s-5.053-10.133-3.79-17.672c0,0-23.169-10.98-25.656,13.011,0,0-1.145-21.487,19.439-20.837,20.552.65,18.85,30.723,7.742,39.1C409.391,244.079,414.78,236.809,411.657,230.474Z" transform="translate(-381.439 -204.962)"/><path class="ab" d="M399.875,224.583a5.258,5.258,0,0,1,5.911-4.485c3.683.608,5.033,8.313-4.285,9.637C400.164,229.925,399.489,228.592,399.875,224.583Z" transform="translate(-371.75 -196.653)"/></g><path class="n" d="M408.138,213.437a45.4,45.4,0,0,0,6.976,28.15c6.727,10.158-1,19.064-1,19.064s15.964-5.508,9-28.163c0,0,7.5-20.246-7.255-25.695,0,0-.084-6.172-13.435-5S378.315,214.411,376.275,229s5.565,30.854,5.565,30.854S373.753,208.16,408.138,213.437Z" transform="translate(-341.067 -201.644)"/><path class="ai" d="M397.017,209.245s-2.718,8.577,1.164,21.867,11.1,18.285,11.1,18.285" transform="translate(-329.946 -197.452)"/><path class="q" d="M406.921,266.156c.2-.742.4-1.485.618-2.259-1.44-5.06-2.928-1.1-2.928-1.1a29.589,29.589,0,0,0-.529,3.364Z" transform="translate(-325.539 -168.731)"/><g transform="translate(79.165 67.333)"><path class="n" d="M426.881,275.134c-5.406-14.4-10.72-30.092-10.72-30.092-11.075,4.369-11.678,27.037-11.678,27.037s.647,1.154,1.725,3.055Z" transform="translate(-404.483 -245.042)"/><path class="j" d="M426.881,275.134c-5.406-14.4-10.72-30.092-10.72-30.092-11.075,4.369-11.678,27.037-11.678,27.037s.647,1.154,1.725,3.055Z" transform="translate(-404.483 -245.042)"/></g></g><rect class="t" width="129.23" height="113.238" transform="translate(0 115.737)"/><g transform="translate(45.575 123.022)"><g transform="translate(5.164 11.127)"><path class="h" d="M226.535,203.32l-12.971,12.986H210.88V203.32Z" transform="translate(-210.88 -203.32)"/><path class="h" d="M225.957,205.82v9.108H216.85Z" transform="translate(-207.587 -201.941)"/><path class="h" d="M228.684,214.529l-4.91-1.552v-7.161l4.91-1.552Z" transform="translate(-203.769 -202.799)"/></g><circle class="aj" cx="17.621" cy="17.621" r="17.621"/><line class="aj" x1="24.92" y2="24.92" transform="translate(5.161 5.161)"/></g></g></g><g transform="translate(96.017 291.682)"><g transform="translate(0 77.767)"><path class="n" d="M86.148,418.358l38.455-3.779V360.537h15.241v54.026l38.608,3.8a7.487,7.487,0,0,1,6.755,7.45v5.775H79.394v-5.775A7.487,7.487,0,0,1,86.148,418.358Z" transform="translate(-52.229 -200.909)"/><path class="j" d="M86.148,418.358l38.455-3.779V360.537h15.241v54.026l38.608,3.8a7.487,7.487,0,0,1,6.755,7.45v5.775H79.394v-5.775A7.487,7.487,0,0,1,86.148,418.358Z" transform="translate(-52.229 -200.909)"/><path class="ak" d="M138.548,414.486a9.964,9.964,0,1,0,9.964-9.964A9.964,9.964,0,0,0,138.548,414.486Z" transform="translate(-19.604 -176.65)"/><path class="al" d="M95.523,414.486a9.964,9.964,0,1,1-9.964-9.964A9.964,9.964,0,0,1,95.523,414.486Z" transform="translate(-54.324 -176.65)"/><path class="n" d="M4.133,0H16.356a4.133,4.133,0,0,1,4.133,4.133v44a0,0,0,0,1,0,0H0a0,0,0,0,1,0,0v-44A4.133,4.133,0,0,1,4.133,0Z" transform="translate(90.238 171.243) rotate(180)"/><path class="t" d="M4.133,0H16.356a4.133,4.133,0,0,1,4.133,4.133v44a0,0,0,0,1,0,0H0a0,0,0,0,1,0,0v-44A4.133,4.133,0,0,1,4.133,0Z" transform="translate(90.238 171.243) rotate(180)"/><path class="n" d="M96.846,282.554s-2.9,72.066,17.16,84.473H91.1s-17.748-24.552-12.732-84.473Z" transform="translate(-53.288 -243.919)"/><path class="t" d="M96.846,282.554s-2.9,72.066,17.16,84.473H91.1s-17.748-24.552-12.732-84.473Z" transform="translate(-53.288 -243.919)"/><path class="am" d="M5,0H97.661a5,5,0,0,1,5,5V15.6a0,0,0,0,1,0,0H0a0,0,0,0,1,0,0V5A5,5,0,0,1,5,0Z" transform="translate(30.01 113.03)"/><g transform="translate(25.731 120.831)"><rect class="o" width="111.219" height="7.8" rx="2.011"/><rect class="an" width="111.219" height="7.8" rx="2.011"/></g><rect class="l" width="75.623" height="53.278" rx="14.584" transform="translate(75.623 53.278) rotate(180)"/></g><g transform="translate(51.131 0)"><path class="n" d="M139.441,250.522c4.11,1.686,27.428,31.436,28.047,37.7.751,7.593-6.956,9.045-15.345,7.077s-2.045-10.208-2.045-10.208L137.18,267Z" transform="translate(-71.489 -183.819)"/><path class="n" d="M146.715,312.986H117.253s5.677-38.934,6.6-39.493,21.549-1.939,21.549-1.939V293.26Z" transform="translate(-82.48 -172.22)"/><path class="n" d="M116.848,244.516c1.075-.227,12.313-4.867,18.432-.168s13,20.35,2.04,26.029-24.932,2.714-26.61-5.832S116.848,244.516,116.848,244.516Z" transform="translate(-86.219 -188.38)"/><path class="n" d="M110.372,221.323s-7.387,17.028-2.216,23.4,38.858,11.354,44.718,5.409-1.815-29.479-1.815-29.479Z" transform="translate(-88.51 -200.294)"/><path class="p" d="M200.442,391.365l-8.776,2.113-4.442-12.115-4.033-11.02,10-4.264,3.843,13.373Z" transform="translate(-46.113 -120.086)"/><path class="q" d="M197.03,379.453l-9.806,1.91-4.033-11.02,10-4.264Z" transform="translate(-46.113 -120.086)"/><g transform="translate(1.068 128.791)"><path class="n" d="M244.5,414.721l-12.172,4.524s-32.472-81.186-39.145-81.466-74.618,30.95-91.649,13.627,7.595-59.044,7.595-59.044,40.959-5.846,44.043,3.4a65,65,0,0,1,1.735,8.3c.467,2.828.787,5.2.787,5.2a.046.046,0,0,0,.028-.012c1.268-.321,42.386-10.931,58.589.012C230.764,320.4,244.5,414.721,244.5,414.721Z" transform="translate(-95.529 -290.539)"/><path class="v" d="M244.5,414.721l-12.172,4.524s-32.472-81.186-39.145-81.466-74.618,30.95-91.649,13.627,7.595-59.044,7.595-59.044,40.959-5.846,44.043,3.4a65,65,0,0,1,1.735,8.3c.467,2.828.787,5.2.787,5.2a.046.046,0,0,0,.028-.012c1.268-.321,42.386-10.931,58.589.012C230.764,320.4,244.5,414.721,244.5,414.721Z" transform="translate(-95.529 -290.539)"/></g><path class="p" d="M149.527,414.043l-8.745-2.24,1.682-12.545,1.562-11.506,10.814.97-2.808,13.407Z" transform="translate(-69.502 -108.132)"/><path class="q" d="M151.388,402.357l-9.56-2.9,1.593-11.626,10.829.91Z" transform="translate(-68.926 -108.09)"/><path class="n" d="M180.457,372.733l17.728-6.027.757,7.264L185.5,378.724Z" transform="translate(-47.62 -119.74)"/><g transform="translate(36.485 170.531)"><path class="n" d="M118.356,340.732s2.774.067,45.738-1.936c0,0-6.422,53.713-9.924,93.922l12.847,2.189s30.7-86.1,30.364-99.781-16.017-17.684-16.017-17.684S150.755,335.126,118.356,340.732Z" transform="translate(-118.356 -317.442)"/><path class="ao" d="M118.356,340.732s2.774.067,45.738-1.936c0,0-6.422,53.713-9.924,93.922l12.847,2.189s30.7-86.1,30.364-99.781-16.017-17.684-16.017-17.684S150.755,335.126,118.356,340.732Z" transform="translate(-118.356 -317.442)"/></g><path class="n" d="M140.243,389.229l17.657,2.009-3.406,6.922L140.2,396.326Z" transform="translate(-69.824 -107.318)"/><path class="ap" d="M142.82,304.462l-23.956,4.993s13.239-7.314,23.169-10.2C142.5,302.086,142.82,304.462,142.82,304.462Z" transform="translate(-81.591 -156.94)"/><g transform="translate(14.667 123.602)"><g transform="translate(0 0.643)"><path class="n" d="M105.28,287.61l-.986,6.372,44.041,3.4,1.166-7.536Z" transform="translate(-104.294 -287.61)"/><path class="q" d="M105.28,287.61l-.986,6.372,44.041,3.4,1.166-7.536Z" transform="translate(-104.294 -287.61)"/></g><rect class="n" width="2.187" height="11.142" transform="matrix(0.995, 0.102, -0.102, 0.995, 13.836, 0)"/><rect class="h" width="9.669" height="7.333" transform="matrix(0.998, 0.064, -0.064, 0.998, 25.255, 2.252)"/><rect class="n" width="2.187" height="11.142" transform="translate(40.878 1.194) rotate(5.872)"/><rect class="v" width="2.187" height="11.142" transform="matrix(0.995, 0.102, -0.102, 0.995, 13.836, 0)"/><rect class="v" width="2.187" height="11.142" transform="translate(40.878 1.194) rotate(5.872)"/></g><path class="i" d="M155.012,252.742a51.38,51.38,0,0,0-24.457-7.947c-14.131-.726-26.832,7.056-26.832,7.056l1.873,59.4,44.22,2.233S163.755,273.861,155.012,252.742Z" transform="translate(-89.942 -187.004)"/><path class="n" d="M149.983,233.585s6.381-28.7-20.164-25.856c-33.321,3.565-20.662,44.914-4.146,42.411S149.983,233.585,149.983,233.585Z" transform="translate(-87.073 -207.531)"/><path class="q" d="M142.929,251.171l.793,12.5-9.593-8.594s-.641,6.24-2.861,16.524a53.337,53.337,0,0,0-4.5-15.522l-9.055,9.229-5.93-14.136S129.938,238.01,142.929,251.171Z" transform="translate(-85.497 -186.688)"/><path class="p" d="M128.9,267.388l-4.783-11.764-8.8-3.936c7.8-5.37,3.868-17.374,3.868-17.374l12.541,4.408a38.578,38.578,0,0,0-1.345,5.359c-1.311,7.823,2.222,8.448,2.222,8.448l-2.423,3.5Z" transform="translate(-83.545 -192.759)"/><path class="q" d="M130.355,238.722a38.578,38.578,0,0,0-1.345,5.359c-6-2.406-11.2-9.767-11.2-9.767Z" transform="translate(-82.17 -192.759)"/><g transform="translate(26.76 1.604)"><path class="p" d="M131.968,213.017c11.334.973,14.462,7.356,14.288,19.107-.216,14.687-4.344,24.78-18.249,20.445C109.123,246.681,113.143,211.4,131.968,213.017Z" transform="translate(-110.102 -206.138)"/><path class="r" d="M130.776,224.5a24.063,24.063,0,0,0,2.894,4.985,3.127,3.127,0,0,1-3.1,1.026Z" transform="translate(-101.894 -199.776)"/><g transform="translate(19.766 20.801)"><path class="n" d="M127.084,224.144c-.057.932-.61,1.657-1.232,1.618s-1.078-.825-1.019-1.759.608-1.657,1.23-1.618S127.143,223.21,127.084,224.144Z" transform="translate(-124.828 -221.744)"/><path class="n" d="M125.455,222.64l2.079-.669S126.417,223.616,125.455,222.64Z" transform="translate(-124.482 -221.971)"/></g><g transform="translate(31.376 21.33)"><path class="n" d="M134.569,224.485c-.059.932-.61,1.657-1.232,1.618s-1.08-.825-1.021-1.759.61-1.657,1.232-1.618S134.626,223.552,134.569,224.485Z" transform="translate(-132.311 -222.085)"/><path class="n" d="M132.939,222.982l2.078-.67S133.9,223.957,132.939,222.982Z" transform="translate(-131.964 -222.312)"/></g><path class="aq" d="M128.442,218.507s-3.15-.687-5.063,1.292" transform="translate(-105.861 -203.144)"/><path class="aq" d="M131.979,218.643a5.308,5.308,0,0,1,4.437,1.32" transform="translate(-101.118 -203.05)"/><path class="n" d="M118.9,232.716s6.1-8.858,5.914-16.116c0,0,23.25-7.247,22.4,15.647,0,0,3.935-20.057-15.512-22.181-19.416-2.122-21.813,26.389-12.479,35.746C119.222,245.813,115.12,238.258,118.9,232.716Z" transform="translate(-111.063 -207.797)"/><path class="p" d="M121.092,228.049a4.99,4.99,0,0,0-4.962-5c-3.545.081-5.84,7.148,2.749,9.632C120.112,233.034,120.923,231.871,121.092,228.049Z" transform="translate(-111.611 -200.578)"/><g transform="translate(21.703 32.355)"><path class="n" d="M133.686,232.417a28.738,28.738,0,0,0-1.783,3.769c-.24-.048-.483-.095-.72-.155-3.249-.721-4.517-2.13-4.939-3.472a4.3,4.3,0,0,1-.088-2.029,4.175,4.175,0,0,1,.344-1.111c1.494,1.412,4.472,2.318,6.082,2.735C133.255,232.336,133.686,232.417,133.686,232.417Z" transform="translate(-126.076 -229.418)"/><path class="h" d="M132.554,232.153l-.555,1.1c-3.058-.689-5.119-1.583-5.871-2.723a4.175,4.175,0,0,1,.344-1.111C127.967,230.83,130.944,231.736,132.554,232.153Z" transform="translate(-126.047 -229.418)"/><path class="r" d="M131.124,234.914c-3.249-.721-4.517-2.13-4.939-3.472a10.716,10.716,0,0,1,3.449,1.516A4.019,4.019,0,0,1,131.124,234.914Z" transform="translate(-126.016 -228.302)"/></g><path class="n" d="M133.645,216.278s-6.169,18.26-17.892,17.011,8.428-23.306,8.428-23.306,19.787-5.586,28.368,5.4-4.31,17.627-4.31,17.627S150.2,218.633,133.645,216.278Z" transform="translate(-112.088 -208.564)"/><path class="z" d="M129.318,212.676s.292,12.854-9.384,16.525" transform="translate(-107.761 -206.296)"/></g><path class="l" d="M119.739,242.553l5.4,8.527-6.771,11.764-4.9-15.1Z" transform="translate(-84.568 -188.215)"/><path class="l" d="M124.9,243.6v7.308l7.993,8.828-2.61-12.676Z" transform="translate(-78.262 -187.636)"/><path class="n" d="M212.377,398.938a12.07,12.07,0,0,0-4.236-1.075h0s-5.069-2.985-10.093-14.575l-5.649-.033a4.658,4.658,0,0,0-4.34,3.109,2.652,2.652,0,0,0-.161.782,32.013,32.013,0,0,0,.434,4.071c.509,4.226,3.3,13.29,3.3,13.29l.957-.244-1.741-8.429c-.579-2.864,2.431-.1,3.826,2.791s3.537,5.795,9.776,4.368C211.725,401.293,214.656,400.246,212.377,398.938Z" transform="translate(-43.517 -110.613)"/><path class="p" d="M197.026,381.362s7.053,14.763,11.115,17.612c0,0-5.446,3.247-11.115-3.981-7.333-9.346-9.128-6.735-9.128-6.735a26.564,26.564,0,0,1,.883-4.765C189.884,380.478,197.026,381.362,197.026,381.362Z" transform="translate(-43.517 -111.723)"/><path class="n" d="M161.321,423.175a12.005,12.005,0,0,0-3.859-2.05h0s-4.217-4.1-6.349-16.553l-5.48-1.372a4.658,4.658,0,0,0-4.954,1.992,2.652,2.652,0,0,0-.341.721,31.618,31.618,0,0,0-.543,4.057c-.509,4.226.056,13.7.056,13.7l.988-.009.307-8.6c.118-2.92,2.385.481,3.057,3.618s2.062,6.468,8.462,6.561C160.129,425.309,163.224,424.986,161.321,423.175Z" transform="translate(-70.165 -99.678)"/><path class="p" d="M150.571,402.377s3.351,16.013,6.622,19.745c0,0-6.06,1.863-9.855-6.5-4.906-10.819-7.269-8.709-7.269-8.709a26.537,26.537,0,0,1,1.988-4.419C143.842,399.823,150.571,402.377,150.571,402.377Z" transform="translate(-69.896 -100.674)"/><path class="n" d="M121.246,245.451s13.767,40.881-5.623,87.3L96.78,330.3l11.658-26.429-2.554-53.131Z" transform="translate(-93.771 -186.616)"/><path class="n" d="M129.368,246.387s6.3,10.153,5.541,40.987l3.811,43.635,3.648-2.591-2.985-21.278s7.956-37.473,4.368-54.338Z" transform="translate(-75.798 -186.1)"/><g transform="translate(49.061 55.967)"><path class="n" d="M126.462,243.6s10.692,5.62,16.155,13.292l-3.991,3.682,5.343,7.826-7.458,20.507S132.466,250.413,126.462,243.6Z" transform="translate(-126.462 -243.603)"/><path class="v" d="M126.462,243.6s10.692,5.62,16.155,13.292l-3.991,3.682,5.343,7.826-7.458,20.507S132.466,250.413,126.462,243.6Z" transform="translate(-126.462 -243.603)"/></g><g transform="translate(17.809 56.135)"><path class="n" d="M119.139,243.711s4.9,28.008,1.147,47.344l-11.734-26.579,6.718-6.459-8.951-6.4A32.078,32.078,0,0,1,119.139,243.711Z" transform="translate(-106.319 -243.711)"/><path class="v" d="M119.139,243.711s4.9,28.008,1.147,47.344l-11.734-26.579,6.718-6.459-8.951-6.4A32.078,32.078,0,0,1,119.139,243.711Z" transform="translate(-106.319 -243.711)"/></g><path class="p" d="M123.53,276.146l15.875,1.1a15.907,15.907,0,0,1,4.157-1.944c1.932-.462,13.222-1.7,15.259-.9s3.887,7.468,3.7,8.856-17.245,1.842-17.785,1.893-2.476-1.761-2.476-1.761l-18.732-.185Z" transform="translate(-79.018 -170.791)"/><path class="n" d="M106.954,248.859C96.622,255.068,91,288.5,97.85,293.729s53.978,5.375,53.978,5.375l1.548-9.962s-40.476-4.046-42.534-7.986-1.334-19.436-1.334-19.436Z" transform="translate(-94.841 -184.737)"/></g></g><g transform="translate(190.682 305.035)"><g transform="translate(0 0)"><g transform="translate(0 98.128)"><g transform="translate(151.336 9.558)"><path class="n" d="M220.442,490.071h8.176l14.69-204.528H232.461Z" transform="translate(-220.437 -285.544)"/><path class="x" d="M220.439,489.954h8.181l13.974-194.368.721-9.83H232.463l-.587,9.83Z" transform="translate(-220.439 -285.427)"/><path class="q" d="M227.81,295.1h10.717l.721-9.342H228.4Z" transform="translate(-216.373 -285.427)"/></g><g transform="translate(89.996 9.558)"><path class="n" d="M182.243,490.071h8.176l1.335-204.528H180.907Z" transform="translate(-180.901 -285.544)"/><path class="x" d="M180.9,285.756l.214,33,1.121,171.2h8.181l1.121-171.2.214-33Z" transform="translate(-180.904 -285.427)"/><path class="q" d="M180.9,285.756l.214,33.366H191.54l.214-33.366Z" transform="translate(-180.904 -285.427)"/></g><g transform="translate(4.527 9.558)"><path class="n" d="M125.82,490.071H134l14.69-204.528H137.839Z" transform="translate(-125.815 -285.544)"/><path class="x" d="M125.817,489.954H134l13.974-194.368.721-9.83H137.841l-.587,9.83Z" transform="translate(-125.817 -285.427)"/><path class="q" d="M133.188,295.1h10.717l.721-9.342H133.776Z" transform="translate(-121.751 -285.427)"/></g><g transform="translate(230.184 9.558)"><path class="n" d="M285.948,490.071h8.176L282.1,285.544H271.258Z" transform="translate(-271.258 -285.544)"/><path class="x" d="M271.259,285.756l.721,9.83,13.974,194.368h8.168L282.7,295.586l-.587-9.83Z" transform="translate(-271.257 -285.427)"/><path class="q" d="M282.11,285.756H271.259l.721,9.342H282.7Z" transform="translate(-271.257 -285.427)"/></g><g transform="translate(7.953 4.436)"><path class="o" d="M2.162,0H239.514a2.162,2.162,0,0,1,2.162,2.162v8.082a0,0,0,0,1,0,0H0a0,0,0,0,1,0,0V2.162A2.162,2.162,0,0,1,2.162,0Z" transform="translate(241.676 10.244) rotate(180)"/><path class="w" d="M2.162,0H239.514a2.162,2.162,0,0,1,2.162,2.162v8.082a0,0,0,0,1,0,0H0a0,0,0,0,1,0,0V2.162A2.162,2.162,0,0,1,2.162,0Z" transform="translate(241.676 10.244) rotate(180)"/></g><rect class="q" width="241.676" height="5.122" transform="translate(249.629 9.558) rotate(180)"/><path class="o" d="M125.783,285.155H377.6a2.886,2.886,0,0,0,2.886-2.886h0a2.886,2.886,0,0,0-2.886-2.886H125.783a2.885,2.885,0,0,0-2.884,2.886h0A2.885,2.885,0,0,0,125.783,285.155Z" transform="translate(-122.899 -279.383)"/><path class="w" d="M125.783,285.155H377.6a2.886,2.886,0,0,0,2.886-2.886h0a2.886,2.886,0,0,0-2.886-2.886H125.783a2.885,2.885,0,0,0-2.884,2.886h0A2.885,2.885,0,0,0,125.783,285.155Z" transform="translate(-122.899 -279.383)"/></g><g transform="translate(70.121)"><g transform="translate(0 93.151)"><path class="n" d="M249.4,281.153l-1.317-4.977H193.965l-24.922,2.489-.949,2.489Z" transform="translate(-168.093 -276.175)"/><path class="m" d="M184.768,276.175v4.977h55.438l-1.317-4.977Z" transform="translate(-158.897 -276.175)"/></g><g transform="translate(36.723 11.478)"><path class="n" d="M191.782,281.379a4.263,4.263,0,0,0,4.3,4.763h82.908a5.325,5.325,0,0,0,5.191-4.763L289.1,228.3a4.5,4.5,0,0,0-.107-1.547,4.234,4.234,0,0,0-4.191-3.218H201.9a5.326,5.326,0,0,0-5.191,4.765Z" transform="translate(-191.762 -223.535)"/><path class="m" d="M194.781,285h82.613a5.325,5.325,0,0,0,5.191-4.763l4.925-53.08a4.5,4.5,0,0,0-.107-1.547H204.79a5.344,5.344,0,0,0-5.191,4.763l-4.925,53.078A4.5,4.5,0,0,0,194.781,285Z" transform="translate(-190.169 -222.391)"/><path class="n" d="M245.559,242.905H228.407l4.572,49.106-27.122,4.072v3.42H262.98v-3.42l-11.7-4.072Z" transform="translate(-183.988 -212.852)"/><path class="ao" d="M220.391,242.905,233.1,298.722l10.163-.3-5.719-55.515Z" transform="translate(-175.972 -212.852)"/></g><rect class="n" width="3.299" height="5.754" transform="translate(86.997 7.877)"/><path class="n" d="M225.788,222.919H221.8a5.422,5.422,0,0,1-.576-2.608,5.066,5.066,0,0,1,.576-2.608h3.991Z" transform="translate(-138.791 -215.273)"/><path class="n" d="M231.964,220.945a4.808,4.808,0,1,1-4.808-4.808A4.809,4.809,0,0,1,231.964,220.945Z" transform="translate(-138.17 -216.137)"/><path class="ao" d="M231.964,220.945a4.808,4.808,0,1,1-4.808-4.808A4.809,4.809,0,0,1,231.964,220.945Z" transform="translate(-138.17 -216.137)"/><g transform="translate(129.129 57.289)"><path class="n" d="M269.8,256.833V293.9H251.32a147.731,147.731,0,0,1,5.384-38.089,3.77,3.77,0,0,1,3.631-2.748h5.694A3.775,3.775,0,0,1,269.8,256.833Z" transform="translate(-251.32 -253.061)"/><path class="m" d="M266.517,256.831V293.9H257.27V258.2a5.135,5.135,0,0,1,5.134-5.136h.343A3.77,3.77,0,0,1,266.517,256.831Z" transform="translate(-248.038 -253.061)"/></g><g transform="translate(11.212 57.289)"><path class="n" d="M193.8,256.833V293.9H175.32a147.731,147.731,0,0,1,5.384-38.089,3.77,3.77,0,0,1,3.631-2.748h5.694A3.775,3.775,0,0,1,193.8,256.833Z" transform="translate(-175.32 -253.061)"/><path class="m" d="M190.517,256.831V293.9H181.27V258.2a5.135,5.135,0,0,1,5.134-5.136h.343A3.77,3.77,0,0,1,190.517,256.831Z" transform="translate(-172.038 -253.061)"/></g></g></g></g></g></g></svg>